<?xml version="1.0" standalone="no"?>
<!DOCTYPE svg PUBLIC "-//W3C//DTD SVG 20010904//EN"
 "http://www.w3.org/TR/2001/REC-SVG-20010904/DTD/svg10.dtd">
<svg version="1.0" xmlns="http://www.w3.org/2000/svg"
 width="500.000000pt" height="74.000000pt" viewBox="0 0 500.000000 74.000000"
 preserveAspectRatio="xMidYMid meet">

<g transform="translate(0.000000,74.000000) scale(0.100000,-0.100000)"
fill="#000000" stroke="none">
<path d="M127 454 c-4 -4 -7 -34 -7 -66 l0 -58 75 0 c60 0 75 3 75 15 0 11
-12 15 -44 15 l-45 0 -3 48 c-2 38 -7 48 -23 50 -12 2 -24 0 -28 -4z"/>
<path d="M290 395 l0 -65 75 0 c60 0 75 3 75 15 0 11 -12 15 -50 15 -27 0 -50
5 -50 10 0 6 18 10 40 10 22 0 40 5 40 10 0 6 -15 10 -34 10 -19 0 -38 5 -41
10 -4 6 12 10 39 10 39 0 46 3 46 20 0 18 -7 20 -70 20 l-70 0 0 -65z"/>
<path d="M491 398 c-38 -59 -39 -63 -20 -66 12 -2 26 1 32 7 14 14 97 15 97 1
0 -5 14 -10 30 -10 l30 0 -42 65 c-56 85 -72 85 -127 3z m79 -10 c0 -5 -7 -8
-15 -8 -17 0 -18 2 -9 25 5 13 8 14 15 3 5 -7 9 -16 9 -20z"/>
<path d="M677 453 c-4 -3 -7 -33 -7 -65 0 -58 0 -58 30 -58 23 0 30 4 30 20 0
11 6 20 14 20 25 0 46 -12 46 -26 0 -8 10 -14 24 -14 22 0 23 3 22 57 -1 56
-2 58 -31 64 -42 9 -120 10 -128 2z m113 -43 c0 -5 -13 -10 -30 -10 -16 0 -30
5 -30 10 0 6 14 10 30 10 17 0 30 -4 30 -10z"/>
<path d="M870 395 c0 -63 1 -65 25 -65 23 0 25 4 25 42 l0 42 36 -42 c27 -32
43 -42 65 -42 l29 0 0 65 c0 63 -1 65 -25 65 -23 0 -25 -4 -25 -42 l-1 -43
-37 43 c-27 30 -45 42 -65 42 -27 0 -27 -1 -27 -65z"/>
<path d="M1087 453 c-4 -3 -7 -33 -7 -65 0 -55 1 -58 25 -58 24 0 25 2 25 65
0 56 -2 65 -18 65 -10 0 -22 -3 -25 -7z"/>
<path d="M1167 453 c-4 -3 -7 -33 -7 -65 0 -55 1 -58 25 -58 23 0 25 4 25 43
l1 42 37 -42 c30 -34 44 -43 70 -43 l33 0 -3 63 c-3 56 -5 62 -25 65 -21 3
-23 -1 -23 -37 0 -23 -2 -41 -5 -41 -3 0 -21 18 -41 40 -34 37 -70 51 -87 33z"/>
<path d="M1420 453 c-51 -19 -65 -68 -30 -103 17 -17 32 -20 85 -18 64 2 65 3
65 30 0 25 -3 28 -36 28 -28 0 -35 -3 -30 -15 3 -10 -1 -15 -13 -15 -24 0 -45
25 -37 46 5 13 16 14 62 8 46 -5 56 -4 52 7 -10 29 -76 47 -118 32z"/>
<path d="M1617 453 c-4 -3 -7 -33 -7 -65 0 -55 1 -58 24 -58 21 0 25 5 28 38
l3 37 23 -37 c14 -23 31 -38 43 -38 12 0 28 15 42 38 l22 37 3 -37 c3 -33 7
-38 28 -38 23 0 24 3 24 65 l0 65 -30 0 c-25 0 -35 -8 -59 -46 l-28 -46 -32
46 c-30 44 -64 59 -84 39z"/>
<path d="M1910 398 c-37 -59 -39 -63 -19 -66 12 -2 26 1 32 7 14 14 84 14 92
1 7 -12 55 -14 54 -2 0 4 -17 32 -37 62 -53 78 -71 78 -122 -2z m78 -6 c2 -7
-5 -12 -17 -12 -14 0 -19 5 -14 15 6 17 25 15 31 -3z"/>
<path d="M2097 453 c-4 -3 -7 -33 -7 -65 0 -55 1 -58 25 -58 23 0 25 4 25 43
l1 42 37 -42 c30 -34 44 -43 70 -43 l33 0 -3 63 c-3 56 -5 62 -25 65 -21 3
-23 -1 -23 -37 0 -23 -2 -41 -5 -41 -3 0 -21 18 -41 40 -34 37 -70 51 -87 33z"/>
<path d="M2369 443 c-19 -23 -69 -101 -69 -108 0 -9 49 -5 55 5 8 13 78 13 92
-1 6 -6 20 -9 32 -7 20 3 19 6 -19 66 -42 65 -65 77 -91 45z m45 -48 c4 -10
-1 -15 -14 -15 -20 0 -26 11 -13 23 10 11 20 8 27 -8z"/>
<path d="M2553 450 c-43 -18 -55 -68 -23 -100 17 -17 32 -20 90 -19 l70 2 0
28 c0 27 -3 29 -40 29 -39 0 -53 -13 -27 -24 6 -3 -1 -4 -18 -3 -25 2 -31 7
-33 31 l-4 29 57 -8 c46 -5 56 -4 53 7 -11 31 -79 47 -125 28z"/>
<path d="M2710 395 l0 -65 75 0 c60 0 75 3 75 15 0 11 -12 15 -50 15 -27 0
-50 5 -50 10 0 6 18 10 40 10 22 0 40 5 40 10 0 6 -15 10 -34 10 -19 0 -38 5
-41 10 -4 6 12 10 39 10 39 0 46 3 46 20 0 18 -7 20 -70 20 l-70 0 0 -65z"/>
<path d="M2887 453 c-4 -3 -7 -33 -7 -65 0 -55 1 -58 24 -58 21 0 25 5 28 38
l3 37 23 -37 c14 -23 31 -38 43 -38 12 0 28 15 42 38 l22 37 3 -37 c3 -33 7
-38 28 -38 23 0 24 3 24 65 l0 65 -30 0 c-25 0 -35 -8 -59 -46 l-28 -46 -32
46 c-30 44 -64 59 -84 39z"/>
<path d="M3150 395 l0 -65 75 0 c60 0 75 3 75 15 0 11 -12 15 -50 15 -27 0
-50 5 -50 10 0 6 18 10 40 10 22 0 40 5 40 10 0 6 -15 10 -34 10 -19 0 -38 5
-41 10 -4 6 12 10 39 10 39 0 46 3 46 20 0 18 -7 20 -70 20 l-70 0 0 -65z"/>
<path d="M3327 453 c-4 -3 -7 -33 -7 -65 0 -55 1 -58 25 -58 23 0 25 4 25 43
l1 42 37 -42 c30 -34 44 -43 70 -43 l33 0 -3 63 c-3 56 -5 62 -25 65 -21 3
-23 -1 -23 -37 0 -23 -2 -41 -5 -41 -3 0 -21 18 -41 40 -34 37 -70 51 -87 33z"/>
<path d="M3530 440 c0 -15 6 -20 25 -20 23 0 25 -4 25 -45 0 -41 2 -45 25 -45
23 0 25 4 25 44 0 39 3 45 23 48 12 2 22 10 22 18 0 12 -16 16 -72 18 -68 3
-73 1 -73 -18z"/>
<path d="M3763 450 c-15 -6 -23 -18 -23 -34 0 -25 16 -36 56 -36 13 0 24 -4
24 -9 0 -5 -18 -7 -40 -4 -24 3 -40 2 -40 -4 0 -38 112 -44 136 -8 18 28 5 44
-47 54 l-44 9 48 1 c51 1 62 16 21 31 -31 12 -61 12 -91 0z"/>
<path d="M3928 427 c22 -23 32 -43 32 -65 0 -29 3 -32 30 -32 27 0 30 3 30 32
0 22 10 42 32 65 31 32 32 33 8 33 -13 0 -34 -10 -47 -22 l-23 -21 -23 21
c-13 12 -34 22 -47 22 -24 0 -23 -1 8 -33z"/>
<path d="M4123 450 c-15 -6 -23 -18 -23 -34 0 -25 16 -36 56 -36 13 0 24 -4
24 -9 0 -5 -18 -7 -40 -4 -24 3 -40 2 -40 -4 0 -38 112 -44 136 -8 18 28 5 44
-47 54 l-44 9 48 1 c51 1 62 16 21 31 -31 12 -61 12 -91 0z"/>
<path d="M4260 440 c0 -15 6 -20 25 -20 23 0 25 -4 25 -45 0 -41 2 -45 25 -45
23 0 25 4 25 44 0 39 3 45 23 48 12 2 22 10 22 18 0 12 -16 16 -72 18 -68 3
-73 1 -73 -18z"/>
<path d="M4430 395 l0 -65 75 0 c60 0 75 3 75 15 0 11 -12 15 -50 15 -27 0
-50 5 -50 10 0 6 18 10 40 10 22 0 40 5 40 10 0 6 -15 10 -34 10 -19 0 -38 5
-41 10 -4 6 12 10 39 10 39 0 46 3 46 20 0 18 -7 20 -70 20 l-70 0 0 -65z"/>
<path d="M4607 453 c-4 -3 -7 -33 -7 -65 0 -55 1 -58 24 -58 21 0 25 5 28 38
l3 37 23 -37 c14 -23 31 -38 43 -38 12 0 28 15 42 38 l22 37 3 -37 c3 -33 7
-38 28 -38 23 0 24 3 24 65 l0 65 -30 0 c-25 0 -35 -8 -59 -46 l-28 -46 -32
46 c-30 44 -64 59 -84 39z"/>
</g>
</svg>
