<?xml version="1.0" standalone="no"?>
<!DOCTYPE svg PUBLIC "-//W3C//DTD SVG 20010904//EN"
 "http://www.w3.org/TR/2001/REC-SVG-20010904/DTD/svg10.dtd">
<svg version="1.0" xmlns="http://www.w3.org/2000/svg"
 width="500.000000pt" height="170.000000pt" viewBox="0 0 500.000000 170.000000"
 preserveAspectRatio="xMidYMid meet">

<g transform="translate(0.000000,170.000000) scale(0.100000,-0.100000)"
fill="#000000" stroke="none">
<path d="M981 1389 c-65 -11 -131 -48 -156 -85 -23 -35 -31 -105 -15 -133 19
-37 89 -60 212 -73 122 -11 145 -21 114 -44 -26 -19 -100 -18 -116 1 -17 21
-220 22 -220 1 0 -22 43 -79 78 -103 81 -54 278 -58 379 -7 98 49 133 146 75
204 -35 35 -78 47 -207 61 -131 13 -136 15 -106 40 28 23 89 25 117 4 14 -10
47 -14 122 -15 56 0 102 2 102 5 0 4 -6 18 -14 33 -22 41 -67 80 -113 96 -55
19 -185 27 -252 15z"/>
<path d="M1503 1383 c2 -5 53 -110 112 -235 l109 -228 82 0 82 0 52 138 c28
75 55 142 59 149 3 7 31 -54 62 -135 l56 -147 82 -3 82 -3 109 227 c61 124
110 230 110 236 0 5 -42 7 -96 6 l-96 -3 -57 -142 c-31 -79 -58 -143 -61 -143
-3 0 -32 64 -65 143 l-60 142 -61 3 -60 3 -59 -138 c-32 -76 -61 -142 -65
-146 -4 -5 -34 57 -66 137 l-58 146 -98 0 c-55 0 -97 -3 -95 -7z"/>
<path d="M2912 1363 c-16 -24 -253 -393 -276 -430 -5 -10 15 -13 92 -13 l98 0
23 40 22 40 145 0 144 0 25 -40 25 -40 95 0 c52 0 95 2 95 5 0 3 -66 109 -147
235 l-147 230 -87 0 c-84 0 -88 -1 -107 -27z m161 -205 l27 -48 -80 0 c-44 0
-80 2 -80 5 0 3 17 35 38 71 42 74 35 76 95 -28z"/>
<path d="M3540 1330 l0 -60 90 0 90 0 0 -175 0 -175 100 0 100 0 0 175 0 175
90 0 90 0 0 60 0 60 -280 0 -280 0 0 -60z"/>
<path d="M1400 965 l0 -45 45 0 45 0 0 45 0 45 -45 0 -45 0 0 -45z"/>
<path d="M2520 965 l0 -45 45 0 45 0 0 45 0 45 -45 0 -45 0 0 -45z"/>
<path d="M3420 965 l0 -45 45 0 45 0 0 45 0 45 -45 0 -45 0 0 -45z"/>
<path d="M4130 965 l0 -45 45 0 45 0 0 45 0 45 -45 0 -45 0 0 -45z"/>
<path d="M3215 790 c-88 -13 -138 -42 -174 -100 -27 -45 -27 -90 1 -125 30
-39 73 -54 190 -65 57 -6 114 -13 127 -16 22 -5 23 -6 6 -24 -22 -24 -92 -27
-121 -5 -14 10 -47 14 -121 15 -57 0 -103 -2 -103 -5 0 -20 44 -87 69 -104 63
-45 219 -64 330 -40 95 20 161 87 161 164 0 48 -22 74 -82 100 -33 13 -180 34
-245 35 -28 0 -30 25 -4 40 28 15 84 12 107 -5 14 -10 47 -14 122 -15 103 0
103 0 96 23 -32 103 -177 154 -359 127z"/>
<path d="M1440 555 l0 -235 275 0 276 0 -3 58 -3 57 -172 3 -173 2 0 175 0
175 -100 0 -100 0 0 -235z"/>
<path d="M2050 555 l0 -235 100 0 99 0 3 144 3 145 84 -145 83 -145 75 3 75 3
82 139 81 140 3 -142 3 -142 99 0 100 0 0 235 0 236 -117 -3 -117 -3 -97 -153
c-53 -85 -101 -158 -107 -164 -6 -6 -42 43 -102 139 -52 81 -100 156 -108 166
-13 14 -33 17 -129 17 l-113 0 0 -235z"/>
</g>
</svg>
